<?xml version="1.0" encoding="utf-8"?>
<!-- Generator: Adobe Illustrator 21.0.2, SVG Export Plug-In . SVG Version: 6.00 Build 0)  -->
<svg version="1.1" id="Layer_1" xmlns="http://www.w3.org/2000/svg" xmlns:xlink="http://www.w3.org/1999/xlink" x="0px" y="0px"
	 viewBox="0 0 300 300" style="enable-background:new 0 0 300 300;" xml:space="preserve">
<style type="text/css">
	.st0{font-family:'NirmalaUI-Semilight';}
	.st1{font-size:11.8018px;}
	.st2{fill:none;stroke:#000000;stroke-width:0.75;stroke-miterlimit:10;}
	.st3{fill:#FFFFFF;}
	.st4{font-size:8.424px;}
	.st5{stroke:#FFFFFF;stroke-width:0.75;stroke-miterlimit:10;}
</style>
<g>
	<g>
		<path d="M78.5,101.3c0.1,0.3,0.3,0.4,0.6,0.5c0.2-0.4,0.4-0.9,0.7-1.4c0.3-0.5,0.7-1,1.1-1.4c0.4-0.4,0.9-0.8,1.4-1.1
			c0.5-0.3,1.1-0.5,1.6-0.6c0.7-0.1,1.3,0,1.9,0.3c0.6,0.3,1,0.6,1.4,1.1c0.2-0.1,0.4-0.3,0.5-0.4c0.2-0.1,0.3-0.3,0.5-0.4
			c0.2-0.2,0.5-0.4,0.8-0.6c-0.1-0.8-0.1-1.5,0-2.3c0.1-0.6,0.2-1.1,0.3-1.7c0.1-0.6,0.3-1.1,0.6-1.7c0.3-0.5,0.6-1.1,1-1.5
			c0.4-0.5,0.9-0.9,1.5-1.3c0.4-0.3,0.8-0.5,1.3-0.6c0.5-0.1,0.9,0,1.3,0.2c0.3,0.2,0.4,0.4,0.5,0.6c0.1,0.3,0.1,0.5,0.1,0.8
			c0,0.3-0.1,0.6-0.2,0.9c-0.1,0.3-0.2,0.6-0.3,0.8c-0.4,0.7-0.8,1.5-1.4,2.2c-0.5,0.7-1.1,1.4-1.7,2.1c0.1,0.6,0.2,1.1,0.3,1.7
			c0.1,0.5,0.2,1.1,0.3,1.7c0.1,1.1,0.1,2.2,0.1,3.3c-0.1,1.1-0.4,2.2-0.9,3.3c-0.6,1.1-1.2,2.1-2.1,2.8c-0.8,0.7-1.9,1.2-3.2,1.4
			c-1.1,0.2-2.2,0.2-3.2,0c-1.1-0.2-2-0.7-2.8-1.3c-0.7-0.5-1.1-1.2-1.5-1.9c-0.3-0.7-0.5-1.5-0.5-2.3c-0.3-0.1-0.6-0.3-0.8-0.6
			c-0.1-0.1-0.2-0.3-0.2-0.6c0-0.2,0-0.5,0-0.7s0.1-0.5,0.3-0.7C78,101.6,78.2,101.5,78.5,101.3z M85.3,101.9
			c-0.8,0.6-1.6,1.1-2.4,1.5c-0.8,0.4-1.5,0.7-2.1,0.9c0.2,0.5,0.4,1,0.6,1.5c0.2,0.4,0.5,0.8,0.8,1.2c0.3,0.4,0.7,0.7,1.1,1
			c0.3,0.2,0.7,0.4,1.1,0.5c0.4,0.1,0.8,0.1,1.3,0c0.6-0.1,1.2-0.3,1.6-0.7c0.5-0.4,0.9-0.8,1.2-1.3c0.4-0.6,0.7-1.3,0.9-1.9
			c0.2-0.6,0.3-1.3,0.3-1.9c0-0.6,0-1.3-0.1-2c-0.1-0.7-0.2-1.3-0.3-2c-0.2,0.2-0.4,0.4-0.6,0.6c-0.2,0.2-0.4,0.4-0.7,0.6
			c0.2,0.3,0.3,0.7,0.3,1c0.1,0.3,0.1,0.7,0.1,1c0,0.6-0.1,1.1-0.3,1.7c-0.2,0.6-0.5,1.1-0.9,1.6c-0.2,0.2-0.4,0.4-0.7,0.6
			c-0.2,0.2-0.5,0.4-0.8,0.5c-0.3,0.2-0.7,0.3-1,0.3c-0.3,0.1-0.6,0-0.7,0c0.3-0.3,0.6-0.7,0.8-1.1c0.2-0.4,0.3-0.8,0.4-1.2
			c0.1-0.4,0.1-0.8,0.1-1.2C85.4,102.7,85.4,102.3,85.3,101.9z M84.7,100.3c-0.4-0.5-0.8-0.7-1.2-0.8c-0.5-0.1-0.9,0-1.3,0.2
			c-0.4,0.2-0.8,0.5-1.1,0.9c-0.3,0.4-0.5,0.9-0.6,1.4c0.5-0.1,1-0.2,1.5-0.4c0.5-0.2,0.9-0.4,1.2-0.5c0.3-0.1,0.5-0.2,0.8-0.4
			C84.2,100.6,84.4,100.4,84.7,100.3z M91.9,94.4c0.1-0.2,0.2-0.2,0.3-0.4c0.2-0.3,0.4-0.6,0.6-0.9c0.2-0.3,0.4-0.6,0.6-0.9
			c0.2-0.3,0.3-0.6,0.4-0.9c0.1-0.3,0.2-0.6,0.2-0.9c0-0.2-0.1-0.3-0.2-0.4c-0.1-0.1-0.3-0.2-0.4-0.2c-0.2,0-0.4,0-0.5,0.1
			c-0.2,0.1-0.4,0.3-0.5,0.5c-0.2,0.3-0.4,0.6-0.4,0.9c-0.1,0.3-0.1,0.6-0.1,1c0,0.3,0,0.7,0,1c0,0.3,0.1,0.6,0.1,0.9
			C91.9,94.2,91.9,94.3,91.9,94.4z"/>
		<path d="M98.5,99c-0.2,0.1-0.4,0.1-0.5,0.2c-0.2,0.1-0.4,0.1-0.6,0.1c0,0.9,0.2,1.6,0.5,2c0.3,0.5,0.7,0.7,1.2,0.8
			c0.5,0,1-0.1,1.7-0.5c0.6-0.4,1.3-0.9,1.9-1.7c0.5-0.6,1-1.3,1.3-2.1s0.6-1.5,0.8-2.2c0.2-0.1,0.3-0.2,0.5-0.2
			c0.2,0,0.3,0.1,0.4,0.3c-0.2,0.7-0.5,1.5-0.9,2.4c-0.4,0.8-0.9,1.7-1.4,2.5c-0.9,1.2-1.8,2.2-2.8,2.9c-1,0.7-2,0.9-2.9,0.8
			c-0.7-0.1-1.4-0.4-1.9-0.9c-0.5-0.5-0.9-1-1.2-1.6c-0.2-0.6-0.3-1.2-0.3-1.9c0-0.7,0.1-1.4,0.3-2.1c0.2-0.7,0.5-1.4,0.8-2
			c0.4-0.7,0.8-1.2,1.3-1.7c0.5-0.5,1.2-1,1.9-1.4c0.8-0.4,1.5-0.7,2.3-0.8c0.4,0,0.7,0,1,0.1c0.3,0.1,0.5,0.3,0.7,0.5
			c0.2,0.2,0.3,0.4,0.4,0.7c0.1,0.3,0.1,0.6,0.1,0.9c-0.1,0.7-0.4,1.4-0.8,2.1c-0.5,0.6-1,1.2-1.6,1.7C100,98.2,99.2,98.7,98.5,99z
			 M99.2,94.2c-0.5,0.7-0.8,1.4-1.1,2.1c-0.3,0.8-0.5,1.5-0.6,2.3c0.2-0.1,0.5-0.3,0.7-0.5c0.4-0.3,0.8-0.7,1.2-1.1
			c0.4-0.4,0.7-0.8,1-1.2c0.2-0.4,0.5-0.8,0.6-1.2c0.2-0.4,0.2-0.9,0-1.3c-0.1-0.2-0.2-0.3-0.4-0.3c-0.2,0-0.4,0.1-0.6,0.3
			c-0.2,0.1-0.4,0.3-0.5,0.5C99.4,93.9,99.2,94.1,99.2,94.2z"/>
		<path d="M109.7,84.4c0.3-0.3,0.7-0.6,1.2-0.8c0.4-0.2,0.9-0.4,1.3-0.5c0.4-0.1,0.8-0.1,1,0c0.3,0.1,0.4,0.3,0.5,0.7
			c0,0.3,0,0.5,0,0.8c-0.1,0.3-0.1,0.6-0.2,0.9c-0.1,0.3-0.2,0.6-0.3,0.9c-0.1,0.3-0.2,0.6-0.3,0.8c-0.2,0.6-0.5,1.2-0.8,1.7
			c-0.3,0.6-0.6,1.1-1,1.7c-0.4,0.6-0.8,1.3-1.3,1.9c-0.4,0.6-0.9,1.3-1.4,1.9c-0.2,0.2-0.3,0.3-0.4,0.5c-0.1,0.2-0.3,0.3-0.4,0.5
			c0,0-0.1,0.1-0.1,0.2c0,0.1-0.1,0.1-0.1,0.2c0,0.2,0,0.4-0.1,0.6c0,0.2,0,0.4-0.1,0.6c0,0.3,0,0.7,0.2,1c0.1,0.4,0.3,0.7,0.6,0.9
			c0.3,0.2,0.6,0.3,1,0.3c0.4,0,0.8-0.3,1.3-0.7c0.3-0.2,0.5-0.5,0.8-0.7c0.3-0.2,0.5-0.5,0.7-0.7c-0.1-0.5-0.2-1-0.2-1.5
			c0-0.5,0.1-1,0.1-1.5c0.1-0.5,0.2-1,0.4-1.5c0.2-0.5,0.3-1,0.5-1.4c0.2-0.5,0.4-1.1,0.7-1.7c0.3-0.6,0.5-1.2,0.8-1.8
			c0.3-0.6,0.6-1.2,0.9-1.8c0.3-0.6,0.7-1.1,1-1.6c0.3-0.4,0.6-0.7,0.9-1.1c0.3-0.3,0.7-0.7,1.1-1c0.3-0.2,0.6-0.4,0.9-0.6
			c0.3-0.2,0.6-0.3,1-0.4c0.1,0,0.3,0,0.5,0c0.1-0.1,0.3-0.2,0.5-0.2c0.2,0,0.4,0.1,0.5,0.1c0.1,0.1,0.2,0.2,0.3,0.4
			c0,0.1,0,0.3,0,0.4c0,0.6,0,1.2-0.2,1.8c-0.2,0.6-0.4,1.3-0.7,1.9c-0.3,0.6-0.6,1.3-1,1.9s-0.7,1.2-1.1,1.7c-0.7,1-1.4,2-2.1,3.1
			c-0.7,1-1.4,2-2.2,3c0,0.1,0,0.1,0,0.2c0,0.3,0,0.7,0,1.1c0,0.4,0.2,0.7,0.3,0.9c0.2,0.2,0.4,0.3,0.8,0.3c0.3,0,0.8-0.2,1.3-0.6
			c0.3-0.2,0.6-0.6,0.9-1c0.3-0.4,0.7-0.9,1-1.4c0.3-0.5,0.6-1,0.9-1.6c0.3-0.5,0.5-1,0.7-1.5c0.2-0.1,0.4-0.2,0.5-0.1
			c0.1,0,0.3,0.1,0.4,0.3c-0.2,0.5-0.4,1-0.7,1.6c-0.3,0.6-0.6,1.1-0.9,1.7c-0.3,0.6-0.7,1.1-1.1,1.7s-0.8,1-1.3,1.5
			c-0.5,0.4-0.9,0.7-1.5,1s-1,0.3-1.5,0.3c-0.5,0-0.9-0.1-1.3-0.4c-0.4-0.2-0.8-0.6-1-1.1c-0.2,0.2-0.4,0.5-0.6,0.7
			c-0.2,0.2-0.4,0.5-0.7,0.7c-0.5,0.5-1.1,0.9-1.7,1.2c-0.6,0.3-1.3,0.4-1.9,0.3c-0.6,0-1.1-0.3-1.6-0.6c-0.5-0.4-0.8-0.9-1.1-1.7
			c-0.1-0.5-0.2-1-0.2-1.5s0-1,0.1-1.5c0.1-0.5,0.2-1,0.3-1.5c0.1-0.5,0.3-1,0.4-1.5c0.3-1.1,0.7-2.1,1.2-3.2c0.4-1.1,1-2.1,1.6-3.1
			c0.3-0.4,0.6-0.8,0.9-1.1C108.9,85,109.3,84.7,109.7,84.4z M107.7,93.5c0.3-0.4,0.6-0.8,0.9-1.3c0.3-0.4,0.6-0.9,0.8-1.3
			c0.3-0.6,0.7-1.2,1-1.8c0.3-0.6,0.6-1.2,0.9-1.8c0.6-1.4,0.9-2.2,0.8-2.4c-0.1-0.2-0.6,0.4-1.5,1.7c-0.5,0.9-0.9,1.7-1.3,2.6
			c-0.4,0.9-0.7,1.8-1,2.7C108,92.6,107.9,92.9,107.7,93.5z M115.7,90.6c-0.2,0.4-0.3,0.9-0.5,1.3c-0.1,0.4-0.3,0.9-0.4,1.3
			c0.5-0.7,1-1.4,1.5-2.2c0.5-0.7,1-1.5,1.4-2.3c0.5-0.9,1-1.8,1.5-2.7c0.4-0.9,0.7-1.9,0.9-3c-0.2,0.3-0.5,0.5-0.7,0.8
			c-0.2,0.3-0.5,0.5-0.7,0.8c-0.3,0.4-0.5,0.9-0.8,1.4c-0.3,0.5-0.6,1-0.8,1.5c-0.3,0.5-0.5,1.1-0.7,1.6
			C116,89.6,115.8,90.1,115.7,90.6z"/>
		<path d="M149,79.4c0.5-0.1,1.1-0.2,1.9-0.3c0.7,0,1.5,0,2.3,0.1c0.8,0.1,1.5,0.3,2.2,0.6c0.7,0.3,1.2,0.7,1.6,1.2
			c-1.7,0.8-3.2,1.7-4.5,2.7c-1.4,1-2.6,2.2-3.7,3.5c0.7,0,1.3-0.1,1.7-0.2c0.4-0.1,0.7-0.2,0.9-0.3c0.1,0,0.2-0.1,0.3-0.1
			s0.1,0,0.2,0c0,0,0,0.1-0.1,0.3s-0.1,0.2-0.1,0.3c-0.2,0.4-0.4,0.7-0.7,1.1c-0.3,0.4-0.7,0.6-1.1,0.8c-0.4,0.2-0.8,0.3-1.2,0.4
			c-0.4,0.1-0.9,0.1-1.3,0.1c-0.2,0.4-0.4,0.8-0.5,1.2c-0.1,0.4-0.2,0.7-0.2,1c-0.1,0.6-0.1,1,0,1.3c0.1,0.3,0.3,0.4,0.5,0.4
			c0.2,0,0.6-0.1,0.9-0.3c0.4-0.2,0.8-0.5,1.2-0.9c0.2-0.2,0.4-0.4,0.7-0.6c0.3-0.3,0.5-0.6,0.8-0.9c0.3-0.3,0.5-0.6,0.8-0.9
			c0.3-0.3,0.5-0.8,0.7-0.9c0.3-0.2,0.7-0.1,0.8,0.4c-0.6,1-1.3,1.9-2,2.8c-0.7,0.9-1.6,1.7-2.7,2.5c-0.2,0.2-0.5,0.3-0.8,0.4
			c-0.3,0.1-0.5,0.2-0.8,0.3c-0.3,0.1-0.6,0.1-0.9,0c-0.3,0-0.6-0.1-0.9-0.3c-0.5-0.3-0.9-0.6-1.1-1.1c-0.2-0.5-0.4-1-0.4-1.5
			c0-0.5,0-1,0.2-1.6c0.1-0.5,0.3-1,0.5-1.6c-0.6-0.1-1.1-0.2-1.6-0.3c-0.5-0.1-1.1-0.2-1.7-0.3c-0.6,0.7-1.2,1.4-1.8,2
			c-0.6,0.7-1.2,1.3-1.8,2c-0.3,0.4-0.7,0.7-1.1,1.1c-0.4,0.4-0.8,0.7-1.2,1c-0.4,0.3-0.9,0.6-1.4,0.8c-0.5,0.2-1,0.4-1.5,0.4
			c-0.5,0.1-1,0-1.5-0.1c-0.5-0.1-0.9-0.3-1.2-0.6c-0.4-0.3-0.6-0.6-0.9-1c-0.2-0.4-0.4-0.9-0.4-1.3c-0.1-1,0-2,0.5-2.9
			c0.5-0.9,1.2-1.8,2.1-2.4c0.8-0.6,1.8-1,2.8-1.3c1-0.2,2.1-0.4,3.1-0.4c0.6,0,1.2,0,1.7,0c0.6,0,1.1,0.1,1.7,0.1
			c0.5-0.6,1-1.2,1.5-1.7c0.5-0.6,1.1-1.1,1.7-1.7c0.8-0.7,1.7-1.4,2.6-2.1C146.8,80.2,147.9,79.7,149,79.4z M135.8,91.7
			c0.4-0.5,0.9-1.1,1.3-1.6c0.4-0.6,0.9-1.1,1.3-1.7c-0.3,0-0.6-0.1-0.9-0.1c-0.3,0-0.6,0-0.9-0.1c-1,0-2,0-3,0.2
			c-1,0.2-1.9,0.6-2.6,1.3c-0.4,0.3-0.7,0.7-0.9,1.2c-0.2,0.4-0.4,0.9-0.4,1.3c0,0.4,0,0.9,0.1,1.3c0.1,0.4,0.4,0.8,0.9,1
			c0.5,0.3,1,0.3,1.5,0.2c0.5-0.2,1-0.4,1.4-0.8c0.5-0.4,0.9-0.8,1.3-1.2C135.2,92.4,135.5,92,135.8,91.7z M151.5,80.9
			c0.2-0.1,0.4-0.2,0.6-0.3c0.2-0.1,0.4-0.2,0.6-0.3c-0.7,0-1.3,0-1.9,0.1c-0.6,0.1-1.3,0.3-1.9,0.6c-0.5,0.3-1,0.6-1.5,0.9
			c-0.5,0.3-0.9,0.7-1.3,1.1s-0.8,0.8-1.2,1.2c-0.4,0.4-0.7,0.8-1.1,1.2c-0.4,0.5-0.7,0.8-1.1,1.3c0.5,0.1,0.8,0.1,1.1,0.2
			s0.6,0.1,0.8,0.1c0.2,0,0.4,0.1,0.5,0.1c0.1,0,0.3,0,0.4,0.1c0.1-0.2,0.2-0.2,0.3-0.4c0.7-1.1,1.6-2.1,2.5-3.1
			C149.2,82.6,150.3,81.7,151.5,80.9z"/>
		<path d="M164.7,89.9c0.3-0.2,0.8,0,0.8,0.4c-0.6,0.8-1.2,1.5-1.9,2.2c-0.7,0.7-1.4,1.3-2.2,1.9c-0.3,0.2-0.7,0.5-1.2,0.7
			c-0.4,0.2-0.9,0.3-1.3,0.4c-0.4,0.1-0.9,0-1.3-0.1c-0.4-0.1-0.8-0.4-1.1-0.7c-0.3-0.3-0.4-0.7-0.5-1.1c0-0.4,0-0.8,0.1-1.2
			s0.2-0.8,0.4-1.2c0.2-0.4,0.4-0.8,0.5-1.1c0.4-0.7,0.8-1.3,1.3-1.9c0.5-0.6,1-1.2,1.4-1.8c-0.5,0.3-1.1,0.7-1.7,1.1
			c-0.6,0.4-1.1,0.8-1.5,1.2c-0.5,0.5-1.1,1-1.5,1.6s-1,1.1-1.4,1.7c-0.2,0.3-0.4,0.6-0.7,0.9c-0.2,0.3-0.4,0.6-0.6,0.9
			c-0.1,0.1-0.2,0.3-0.4,0.5c-0.2,0.2-0.4,0.3-0.6,0.3c-0.2,0-0.4-0.1-0.6-0.2c-0.2-0.1-0.4-0.2-0.5-0.4c-0.2-0.2-0.3-0.3-0.4-0.5
			c-0.1-0.2-0.1-0.3-0.1-0.5c0.3-1.1,0.7-2.1,1.4-3.1c0.7-1,1.4-2,2.1-2.9c0.3-0.4,0.6-0.8,0.9-1.2c0.3-0.4,0.6-0.8,1-1.2
			c0.2-0.2,0.4-0.3,0.6-0.4c0.3-0.1,0.6,0,1.1,0.3c0.2,0.1,0.4,0.2,0.5,0.3c0.1,0.1,0.2,0.2,0.2,0.4c0,0.1-0.1,0.3-0.2,0.5
			c-0.1,0.2-0.4,0.5-0.6,0.8c-0.3,0.3-0.5,0.6-0.8,1c-0.3,0.4-0.5,0.7-0.7,1.1c0.3-0.3,0.6-0.6,1-0.9c0.4-0.4,0.8-0.7,1.3-1.1
			c0.5-0.3,0.9-0.7,1.4-0.9c0.5-0.3,0.9-0.5,1.3-0.6c0.5-0.2,1.1-0.2,1.7-0.1c0.6,0.1,1.2,0.4,1.7,0.9c0.1,0.1,0.2,0.2,0.2,0.3
			c0,0.1-0.1,0.2-0.2,0.3c-0.2,0.3-0.4,0.6-0.6,0.9c-0.2,0.3-0.5,0.6-0.7,0.9c-0.3,0.3-0.5,0.6-0.7,0.9c-0.3,0.4-0.7,0.9-1.1,1.4
			c-0.4,0.5-0.7,1-1,1.5c-0.3,0.6-0.4,1-0.3,1.3c0.1,0.3,0.3,0.4,0.6,0.5c0.3,0,0.7-0.1,1.2-0.3c0.5-0.2,1-0.6,1.6-1.1
			c0.4-0.4,0.8-0.7,1.2-1.1C163.9,90.8,164.3,90.1,164.7,89.9z"/>
		<path d="M177.4,87.2c-0.4,0.5-0.8,0.9-1.2,1.3c-0.3,0.3-0.6,0.7-0.9,1c-0.3,0.3-0.5,0.5-0.6,0.7c-1.1,1.2-2,2.5-2.9,3.8
			c-0.9,1.3-1.7,2.7-2.6,4.1c0.4,0.2,0.6,0.3,1,0.5c0.3,0.1,0.6,0.3,0.9,0.4c0.3,0.1,0.7,0.2,1,0.3c0.3,0.1,0.6,0.1,0.9,0.1
			c0.3,0,0.5-0.1,0.8-0.2c-0.2,0.4-0.5,0.8-0.9,1.2c-0.4,0.3-0.8,0.6-1.3,0.7c-0.5,0.2-1,0.2-1.5,0.2c-0.5,0-1-0.1-1.5-0.3
			c-0.3-0.1-0.5-0.2-0.8-0.3c-0.4,0.6-0.7,1.1-1.2,1.7c-0.4,0.5-0.9,1-1.5,1.4c-0.5,0.4-1.1,0.7-1.8,0.9c-0.6,0.2-1.3,0.3-2,0.2
			c-0.7-0.1-1.4-0.3-2-0.7c-0.6-0.4-1.1-0.9-1.4-1.6c-0.3-0.6-0.4-1.2-0.4-1.9s0.2-1.3,0.5-1.9c0.3-0.6,0.7-1.1,1.2-1.5
			c0.5-0.4,1.1-0.7,1.8-0.9c0.9-0.2,1.8-0.2,2.7-0.1c1,0.2,1.9,0.4,2.7,0.7c0,0,0,0,0,0c0.3-0.6,0.6-1.1,0.9-1.6
			c0.3-0.5,0.6-1.1,0.9-1.6c-0.1,0.1-0.2,0.2-0.3,0.3c-0.3,0.3-0.5,0.5-0.8,0.8c-0.3,0.3-0.6,0.5-0.9,0.7c-0.3,0.2-0.7,0.3-1,0.3
			c-0.4,0-0.8-0.1-1.2-0.3c-0.7-0.4-1.2-0.9-1.3-1.5c-0.1-0.6-0.1-1.3,0.1-2.1c0.3-0.8,0.7-1.6,1.2-2.3c0.5-0.7,1.1-1.4,1.8-2.1
			c0.3-0.3,0.6-0.6,1-0.9c0.4-0.3,0.8-0.6,1.3-0.7c0.3-0.1,0.7-0.1,1.1,0c0.5,0.1,0.9,0.3,1.4,0.7c-0.4,0.3-0.8,0.7-1.4,1.3
			c-0.6,0.6-1.1,1.2-1.6,1.8c-0.5,0.6-1,1.3-1.4,1.9c-0.4,0.6-0.7,1.2-0.8,1.7c0,0.2,0,0.3,0,0.5c0.1,0.1,0.2,0.2,0.3,0.3
			c0.1,0,0.3,0,0.6-0.1c0.2-0.1,0.6-0.3,0.9-0.5c0.6-0.4,1.1-0.9,1.6-1.4s1-1,1.4-1.5c0.3-0.4,0.6-0.9,1-1.3
			c0.4-0.4,0.8-0.9,1.2-1.2c0.4-0.4,0.9-0.7,1.4-0.9c0.5-0.2,0.9-0.4,1.4-0.4c0.3,0,0.6,0,0.8,0.1c0.2,0.1,0.4,0.1,0.6,0.2
			C177.1,87,177.2,87.2,177.4,87.2z M162.7,102.8c0.6-0.4,1.1-0.9,1.5-1.5c0.4-0.6,0.7-1.2,1-1.9c0,0,0,0,0,0
			c-0.4-0.2-0.9-0.4-1.3-0.5c-0.4-0.2-0.9-0.3-1.4-0.3c-0.5-0.1-1-0.1-1.6,0c-0.5,0.1-1,0.3-1.4,0.7c-0.3,0.3-0.6,0.7-0.7,1.2
			c-0.1,0.5-0.1,0.9,0.2,1.3c0.2,0.3,0.4,0.6,0.7,0.8c0.3,0.2,0.6,0.3,0.9,0.4c0.3,0.1,0.7,0.1,1,0.1
			C162.1,103.1,162.4,103,162.7,102.8z"/>
		<path d="M189.5,83c-0.1,1,0,2,0.2,2.9c0.3,0.9,0.8,1.8,1.6,2.7c0.5-0.2,1.1-0.4,1.6-0.5c0.5-0.1,1.1-0.2,1.7-0.3
			c1.1-0.2,2.2-0.2,3.4-0.2c1.2,0,2.3,0.3,3.4,0.7c0.7,0.3,1.2,0.6,1.6,1c0.4,0.4,0.6,0.8,0.6,1.3c0.1,0.5,0,0.9-0.3,1.3
			c-0.2,0.4-0.6,0.8-1.1,1.2c-0.4,0.3-0.9,0.5-1.4,0.7c-0.5,0.2-1,0.3-1.5,0.3c-0.5,0.1-1.1,0.1-1.6,0s-1.1-0.1-1.6-0.2
			c-0.9-0.2-1.9-0.5-2.8-0.9c-0.9-0.4-1.8-0.9-2.5-1.6c-0.1,0.1-0.2,0.2-0.3,0.3c-0.1,0.1-0.2,0.2-0.3,0.3c-0.4,0.3-0.8,0.7-1.3,1
			s-0.8,0.8-1.1,1.2c-0.3,0.4-0.6,0.9-0.9,1.3c-0.2,0.5-0.4,1-0.5,1.5c-0.1,0.6,0,1.1,0.3,1.5c0.3,0.4,0.7,0.7,1.1,1
			c0.5,0.2,1,0.4,1.5,0.5c0.6,0.1,1.1,0.1,1.6,0c0.6-0.1,1.2-0.3,1.7-0.7c0.5-0.3,0.9-0.7,1.2-1c0.3-0.4,0.5-0.7,0.6-1.1
			c0.1-0.4,0-0.7-0.3-0.9c-0.2-0.2-0.5-0.3-0.8-0.3c-0.3,0-0.6,0.1-0.8,0.2c-0.3,0.1-0.5,0.3-0.7,0.5c-0.2,0.2-0.4,0.4-0.5,0.5
			c-0.1-0.4-0.1-0.8,0-1.2c0.1-0.4,0.4-0.7,0.7-1c0.3-0.3,0.7-0.4,1.2-0.5c0.5-0.1,1,0,1.6,0.2c0.5,0.2,0.9,0.5,1.2,0.9
			c0.3,0.4,0.4,0.8,0.4,1.3c0,0.5-0.1,0.9-0.3,1.3c-0.2,0.4-0.5,0.8-0.9,1.1c-0.3,0.3-0.7,0.6-1.2,0.9c-0.4,0.3-0.9,0.5-1.3,0.6
			c-0.5,0.2-1,0.3-1.5,0.4c-0.5,0.1-1.1,0.2-1.7,0.2c-0.6,0-1.1,0-1.7-0.1c-0.6-0.1-1.1-0.2-1.6-0.4c-0.6-0.2-1.1-0.6-1.5-1
			c-0.4-0.4-0.7-0.8-0.9-1.3c-0.2-0.5-0.3-1-0.4-1.6c0-0.5,0-1.1,0.2-1.6c0.3-1,0.8-2,1.6-2.8c0.8-0.8,1.7-1.6,2.6-2.2
			c0.4-0.2,0.7-0.4,1.1-0.6c-0.5-0.7-0.8-1.3-1-2.1c-0.2-0.7-0.2-1.5-0.1-2.3c0-0.1,0.1-0.3,0.2-0.6c0.1-0.2,0.2-0.5,0.3-0.7
			c0.1-0.2,0.3-0.4,0.5-0.6C189.1,83.2,189.3,83.1,189.5,83z M196.6,89.1c-1.2,0.3-2.4,0.7-3.4,1.2c0.5,0.3,1.1,0.6,1.6,0.9
			c0.6,0.3,1.2,0.5,1.8,0.6c0.3,0.1,0.7,0.2,1.1,0.2c0.4,0.1,0.8,0.1,1.2,0.1c0.4,0,0.8,0,1.2-0.1c0.4,0,0.8-0.1,1.1-0.3
			c0.4-0.1,0.7-0.3,0.9-0.6c0.2-0.2,0.3-0.5,0.3-0.7c0-0.2-0.1-0.5-0.4-0.7c-0.2-0.2-0.6-0.5-1.1-0.6c-0.3-0.1-0.7-0.2-1.2-0.2
			c-0.4,0-0.8-0.1-1.2-0.1c-0.4,0-0.8,0-1.1,0.1C197,89,196.8,89,196.6,89.1z"/>
		<path d="M211.5,98.3c-0.3,0.1-0.6,0.3-1,0.5c-0.4,0.2-0.8,0.5-1.3,0.7c-0.4,0.3-0.9,0.5-1.3,0.8c-0.4,0.3-0.8,0.6-1.2,0.9
			c-0.8,0.6-1.4,1.1-1.8,1.5c-0.5,0.4-0.7,0.7-0.6,0.9c0,0.1,0.1,0.2,0.2,0.2c0.1,0,0.3,0.1,0.4,0.1c0.2,0,0.3,0,0.5,0
			c0.1,0,0.2,0,0.3,0c0.4,0,0.8-0.1,1.2-0.3c0.4-0.1,0.7-0.3,1.1-0.5c0.3-0.2,0.7-0.3,1-0.5c0.3-0.2,0.6-0.4,0.9-0.6
			c0.2,0,0.4,0.1,0.5,0.2c0.1,0.1,0.2,0.3,0.1,0.5c-0.4,0.3-0.8,0.5-1.1,0.8c-0.4,0.2-0.8,0.5-1.2,0.7c-0.4,0.2-0.8,0.4-1.2,0.6
			c-0.4,0.2-0.8,0.3-1.3,0.5c-0.4,0.1-0.8,0.2-1.3,0.3c-0.4,0.1-0.9,0-1.3-0.2c-0.4-0.2-0.8-0.4-1-0.8c-0.3-0.4-0.4-0.7-0.4-1.2
			c0-0.2,0-0.4,0.1-0.6c-0.4,0.2-0.8,0.4-1.1,0.6c-0.4,0.2-0.8,0.3-1.2,0.3c-0.6,0.1-1.2,0-1.7-0.3c-0.5-0.2-0.9-0.6-1.2-1.1
			c-0.3-0.5-0.4-0.9-0.4-1.4c0-0.5,0.1-1,0.2-1.4c0.2-0.6,0.5-1.1,0.9-1.6c0.4-0.5,0.8-0.9,1.3-1.3c0.5-0.4,1-0.7,1.6-1
			c0.6-0.3,1.2-0.5,1.8-0.7c0.6-0.2,1.2-0.3,1.9-0.3c0.7,0,1.3,0.1,2,0.4c0.6,0.3,1.1,0.7,1.4,1.1c0.3,0.5,0.5,1,0.5,1.6
			c0.3-0.1,0.6-0.2,0.9-0.2s0.6-0.1,1,0c0.3,0,0.7,0.1,1,0.3C211.1,97.8,211.3,98,211.5,98.3z M201.4,100.7c0.9-0.2,1.8-0.5,2.6-0.9
			c0.9-0.5,1.5-1,2-1.7c0.2-0.3,0.3-0.5,0.3-0.9c0-0.3-0.2-0.6-0.6-0.8c-0.3-0.2-0.6-0.2-1-0.2c-0.3,0-0.7,0.1-1,0.2
			c-0.9,0.3-1.8,0.8-2.5,1.4s-1.3,1.3-1.9,2c-0.5,0.7-0.7,1.3-0.5,1.7c0.2,0.4,0.6,0.5,1.2,0.5c0.4,0,0.8-0.1,1.2-0.2
			c0.4-0.1,0.8-0.2,1.1-0.4c-0.2,0-0.5-0.1-0.7-0.2C201.6,101,201.5,100.9,201.4,100.7z"/>
		<path d="M204.8,104c1.4-0.6,2.7-1.2,3.9-2c1.3-0.8,2.5-1.6,3.6-2.6c-0.1-0.4,0-0.8,0.2-1.1c0.2-0.3,0.4-0.5,0.7-0.7
			c0.3-0.2,0.5-0.2,0.8-0.2c0.3,0,0.5,0.2,0.7,0.4c0.2,0.3,0.2,0.5,0,0.8c-0.2,0.3-0.4,0.5-0.7,0.7c0.1,0.1,0.2,0.2,0.4,0.3
			c0.2,0.1,0.3,0.1,0.4,0.2c0.4,0.2,1,0.4,1.3,0.4c0.3,0,0.7-0.2,0.9-0.2c0.2,0,0.5,0.2,0.6,0.5c0.4,0.7,0.6,1.3,0.5,1.7
			c-0.1,0.4-0.4,0.7-0.9,0.8c-0.9,0.3-1.9,0.8-2.8,1.2c-0.9,0.5-1.7,1-2.3,1.5c-0.4,0.4-0.7,0.7-0.8,1c-0.1,0.3-0.1,0.5,0.1,0.7
			c0.2,0.2,0.4,0.3,0.8,0.4c0.4,0.1,0.8,0,1.4-0.1c0.6-0.1,1.3-0.3,2.1-0.7c0.8-0.3,1.5-0.7,2.2-1.1c0.3,0,0.5,0.1,0.5,0.2
			c0.1,0.2,0.1,0.3,0,0.5c-0.8,0.5-1.5,0.8-2.3,1.2c-0.7,0.3-1.5,0.6-2.4,0.8c-0.7,0.2-1.4,0.3-2,0.2c-0.6,0-1.1-0.1-1.6-0.3
			c-0.5-0.2-0.9-0.4-1.1-0.8c-0.3-0.3-0.5-0.7-0.5-1.1c-0.1-0.4,0-0.9,0.2-1.3c0.2-0.5,0.6-1,1.1-1.4c0.6-0.6,1.4-1.1,2.2-1.6
			c0.8-0.5,1.6-0.9,2.2-1.1c-0.1-0.1-0.2-0.1-0.3-0.1c-0.1-0.1-0.3-0.2-0.5-0.4c-0.2-0.2-0.4-0.3-0.6-0.5c-0.4,0.3-0.8,0.7-1.3,1.1
			c-0.5,0.4-1.1,0.8-1.7,1.2c-0.5,0.3-1,0.7-1.5,0.9c-0.5,0.3-1,0.5-1.4,0.6c-0.4,0.1-0.8,0.2-1.2,0.2
			C205.5,104.3,205.1,104.2,204.8,104z"/>
	</g>
</g>
<text transform="matrix(1.2143 3.768615e-02 -3.101996e-02 0.9995 135.4307 115.7648)" class="st0 st1">2018</text>
<line class="st2" x1="123.6" y1="120.8" x2="174" y2="120.8"/>
<rect x="69" y="156.9" width="145" height="72"/>
<text transform="matrix(1.2143 3.768620e-02 -3.102000e-02 0.9995 131.932 204.7729)" class="st3 st0 st4">2018</text>
<line class="st5" x1="123.5" y1="206.5" x2="159.5" y2="206.5"/>
<g>
	<g>
		<path class="st3" d="M89.8,194.8c0.1,0.2,0.2,0.3,0.4,0.4c0.1-0.3,0.3-0.6,0.5-1c0.2-0.4,0.5-0.7,0.8-1s0.6-0.6,1-0.8
			c0.4-0.2,0.8-0.4,1.2-0.4c0.5-0.1,1,0,1.3,0.2c0.4,0.2,0.7,0.4,1,0.8c0.1-0.1,0.3-0.2,0.4-0.3c0.1-0.1,0.2-0.2,0.4-0.3
			c0.2-0.1,0.4-0.3,0.6-0.5c-0.1-0.6-0.1-1.1,0-1.6c0-0.4,0.1-0.8,0.2-1.2c0.1-0.4,0.2-0.8,0.4-1.2c0.2-0.4,0.4-0.8,0.7-1.1
			c0.3-0.3,0.7-0.7,1.1-0.9c0.3-0.2,0.6-0.3,1-0.4c0.4-0.1,0.7,0,0.9,0.1c0.2,0.1,0.3,0.3,0.4,0.4s0.1,0.4,0.1,0.6
			c0,0.2-0.1,0.4-0.1,0.6c-0.1,0.2-0.1,0.4-0.2,0.6c-0.3,0.5-0.6,1-1,1.6c-0.4,0.5-0.8,1-1.2,1.5c0.1,0.4,0.1,0.8,0.2,1.2
			c0.1,0.4,0.2,0.8,0.2,1.2c0.1,0.8,0.1,1.6,0,2.4c-0.1,0.8-0.3,1.6-0.7,2.4c-0.4,0.8-0.9,1.5-1.5,2c-0.6,0.5-1.3,0.8-2.3,1
			c-0.8,0.2-1.5,0.2-2.3,0c-0.8-0.2-1.4-0.5-2-0.9c-0.5-0.4-0.8-0.8-1-1.4c-0.2-0.5-0.3-1.1-0.4-1.7c-0.2-0.1-0.4-0.2-0.6-0.5
			c-0.1-0.1-0.1-0.2-0.1-0.4c0-0.2,0-0.3,0-0.5c0-0.2,0.1-0.3,0.2-0.5S89.6,194.9,89.8,194.8z M94.6,195.2c-0.6,0.4-1.2,0.8-1.7,1.1
			c-0.6,0.3-1.1,0.5-1.5,0.6c0.1,0.4,0.3,0.7,0.5,1c0.2,0.3,0.3,0.6,0.6,0.9c0.2,0.3,0.5,0.5,0.8,0.7c0.2,0.1,0.5,0.3,0.8,0.3
			s0.6,0.1,0.9,0c0.4-0.1,0.8-0.2,1.2-0.5c0.3-0.3,0.6-0.6,0.8-0.9c0.3-0.5,0.5-0.9,0.6-1.4c0.1-0.5,0.2-0.9,0.2-1.4
			c0-0.5,0-0.9-0.1-1.4c-0.1-0.5-0.1-0.9-0.2-1.4c-0.1,0.1-0.3,0.3-0.4,0.4c-0.1,0.1-0.3,0.3-0.5,0.4c0.1,0.2,0.2,0.5,0.2,0.7
			c0.1,0.2,0.1,0.5,0.1,0.7c0,0.4-0.1,0.8-0.2,1.2c-0.1,0.4-0.3,0.8-0.6,1.2c-0.1,0.2-0.3,0.3-0.5,0.4c-0.2,0.1-0.4,0.3-0.5,0.3
			c-0.2,0.1-0.5,0.2-0.7,0.2c-0.2,0-0.4,0-0.5,0c0.2-0.2,0.4-0.5,0.6-0.8c0.1-0.3,0.2-0.6,0.3-0.9c0.1-0.3,0.1-0.6,0.1-0.9
			C94.7,195.7,94.7,195.5,94.6,195.2z M94.2,194c-0.3-0.3-0.6-0.5-0.9-0.6c-0.3-0.1-0.6,0-0.9,0.1c-0.3,0.1-0.6,0.4-0.8,0.7
			c-0.2,0.3-0.3,0.6-0.4,1c0.3-0.1,0.7-0.2,1-0.3c0.4-0.1,0.6-0.3,0.9-0.4c0.2-0.1,0.4-0.2,0.5-0.3C93.8,194.2,94,194.1,94.2,194z
			 M99.3,189.8c0.1-0.1,0.1-0.2,0.2-0.3c0.1-0.2,0.3-0.4,0.4-0.6c0.2-0.2,0.3-0.4,0.4-0.7c0.1-0.2,0.2-0.4,0.3-0.7
			c0.1-0.2,0.1-0.4,0.1-0.6c0-0.1-0.1-0.2-0.1-0.3c-0.1-0.1-0.2-0.1-0.3-0.1c-0.1,0-0.3,0-0.4,0.1c-0.1,0.1-0.3,0.2-0.4,0.3
			c-0.1,0.2-0.3,0.4-0.3,0.6c-0.1,0.2-0.1,0.5-0.1,0.7c0,0.2,0,0.5,0,0.7c0,0.2,0.1,0.5,0.1,0.7C99.3,189.7,99.3,189.7,99.3,189.8z"
			/>
		<path class="st3" d="M104,193.1c-0.1,0.1-0.3,0.1-0.4,0.1c-0.1,0-0.3,0.1-0.4,0.1c0,0.6,0.1,1.1,0.3,1.4c0.2,0.3,0.5,0.5,0.9,0.5
			c0.3,0,0.7-0.1,1.2-0.3c0.4-0.3,0.9-0.7,1.4-1.2c0.4-0.4,0.7-1,1-1.5c0.3-0.5,0.5-1.1,0.6-1.6c0.1-0.1,0.2-0.1,0.3-0.2
			c0.1,0,0.2,0.1,0.3,0.2c-0.1,0.5-0.3,1.1-0.6,1.7c-0.3,0.6-0.6,1.2-1,1.8c-0.6,0.9-1.3,1.6-2,2c-0.7,0.5-1.4,0.7-2.1,0.6
			c-0.5-0.1-1-0.3-1.4-0.6c-0.4-0.3-0.7-0.7-0.8-1.2c-0.1-0.4-0.2-0.9-0.2-1.4c0-0.5,0.1-1,0.2-1.5c0.1-0.5,0.3-1,0.6-1.4
			c0.3-0.5,0.6-0.9,0.9-1.2c0.4-0.4,0.8-0.7,1.4-1c0.5-0.3,1.1-0.5,1.6-0.6c0.3,0,0.5,0,0.7,0.1c0.2,0.1,0.4,0.2,0.5,0.3
			c0.1,0.1,0.2,0.3,0.3,0.5c0,0.2,0.1,0.4,0,0.6c-0.1,0.5-0.3,1-0.6,1.5c-0.3,0.5-0.7,0.9-1.2,1.2
			C105.1,192.6,104.6,192.9,104,193.1z M104.5,189.7c-0.3,0.5-0.6,1-0.8,1.5c-0.2,0.5-0.4,1.1-0.4,1.6c0.2-0.1,0.3-0.2,0.5-0.4
			c0.3-0.2,0.6-0.5,0.9-0.8c0.3-0.3,0.5-0.6,0.7-0.9c0.2-0.3,0.3-0.5,0.4-0.9c0.1-0.3,0.1-0.6,0-0.9c-0.1-0.2-0.1-0.2-0.3-0.2
			c-0.1,0-0.3,0.1-0.4,0.2c-0.1,0.1-0.3,0.2-0.4,0.3C104.7,189.5,104.6,189.6,104.5,189.7z"/>
		<path class="st3" d="M112,182.7c0.2-0.2,0.5-0.4,0.8-0.6s0.6-0.3,0.9-0.3c0.3-0.1,0.5-0.1,0.7,0c0.2,0.1,0.3,0.2,0.3,0.5
			c0,0.2,0,0.4,0,0.6s-0.1,0.4-0.2,0.7c-0.1,0.2-0.2,0.4-0.2,0.6c-0.1,0.2-0.2,0.4-0.2,0.6c-0.2,0.4-0.4,0.8-0.6,1.2
			c-0.2,0.4-0.5,0.8-0.7,1.2c-0.3,0.5-0.6,0.9-0.9,1.4c-0.3,0.5-0.6,0.9-1,1.3c-0.1,0.1-0.2,0.2-0.3,0.4c-0.1,0.1-0.2,0.2-0.3,0.3
			c0,0-0.1,0.1-0.1,0.1c0,0-0.1,0.1-0.1,0.1c0,0.2,0,0.3,0,0.5c0,0.1,0,0.3,0,0.5c0,0.2,0,0.5,0.1,0.7c0.1,0.3,0.2,0.5,0.4,0.6
			c0.2,0.2,0.4,0.2,0.7,0.2c0.3,0,0.6-0.2,0.9-0.5c0.2-0.2,0.4-0.3,0.5-0.5c0.2-0.2,0.4-0.3,0.5-0.5c-0.1-0.3-0.1-0.7-0.1-1.1
			c0-0.4,0-0.7,0.1-1.1c0.1-0.4,0.2-0.7,0.3-1.1c0.1-0.4,0.2-0.7,0.4-1c0.1-0.4,0.3-0.8,0.5-1.2c0.2-0.4,0.4-0.9,0.6-1.3
			c0.2-0.4,0.4-0.9,0.7-1.3c0.2-0.4,0.5-0.8,0.7-1.1c0.2-0.3,0.4-0.5,0.7-0.8c0.2-0.2,0.5-0.5,0.8-0.7c0.2-0.1,0.4-0.3,0.6-0.4
			c0.2-0.1,0.5-0.2,0.7-0.3c0.1,0,0.2,0,0.3,0c0.1-0.1,0.2-0.1,0.4-0.1c0.1,0,0.3,0,0.3,0.1c0.1,0.1,0.2,0.2,0.2,0.3
			c0,0.1,0,0.2,0,0.3c0,0.4,0,0.8-0.1,1.3c-0.1,0.5-0.3,0.9-0.5,1.4c-0.2,0.5-0.5,0.9-0.7,1.3s-0.5,0.9-0.8,1.2
			c-0.5,0.7-1,1.5-1.5,2.2c-0.5,0.7-1,1.4-1.6,2.1c0,0,0,0.1,0,0.1c0,0.2,0,0.5,0,0.8c0,0.3,0.1,0.5,0.2,0.6
			c0.1,0.2,0.3,0.2,0.5,0.2c0.2,0,0.5-0.2,0.9-0.5c0.2-0.2,0.4-0.4,0.7-0.7c0.2-0.3,0.5-0.6,0.7-1c0.2-0.4,0.5-0.7,0.7-1.1
			c0.2-0.4,0.4-0.7,0.5-1.1c0.1-0.1,0.3-0.1,0.4-0.1c0.1,0,0.2,0.1,0.3,0.2c-0.1,0.3-0.3,0.7-0.5,1.1c-0.2,0.4-0.4,0.8-0.6,1.2
			c-0.2,0.4-0.5,0.8-0.8,1.2c-0.3,0.4-0.6,0.7-0.9,1c-0.3,0.3-0.7,0.5-1,0.7c-0.4,0.2-0.7,0.2-1.1,0.2c-0.3,0-0.7-0.1-1-0.3
			c-0.3-0.2-0.5-0.4-0.7-0.8c-0.2,0.2-0.3,0.3-0.5,0.5c-0.2,0.2-0.3,0.3-0.5,0.5c-0.4,0.4-0.8,0.6-1.2,0.8c-0.5,0.2-0.9,0.3-1.3,0.2
			c-0.4,0-0.8-0.2-1.2-0.4c-0.4-0.3-0.6-0.7-0.8-1.2c-0.1-0.3-0.2-0.7-0.2-1.1c0-0.4,0-0.7,0.1-1.1c0-0.4,0.1-0.7,0.2-1.1
			c0.1-0.4,0.2-0.7,0.3-1c0.2-0.8,0.5-1.5,0.8-2.3c0.3-0.8,0.7-1.5,1.2-2.2c0.2-0.3,0.4-0.6,0.6-0.8
			C111.5,183.1,111.7,182.9,112,182.7z M110.6,189.2c0.2-0.3,0.4-0.6,0.6-0.9c0.2-0.3,0.4-0.6,0.6-0.9c0.2-0.4,0.5-0.8,0.7-1.3
			c0.2-0.4,0.4-0.9,0.6-1.3c0.5-1,0.7-1.6,0.6-1.7s-0.5,0.3-1,1.2c-0.3,0.6-0.7,1.2-0.9,1.9c-0.3,0.6-0.5,1.3-0.7,1.9
			C110.8,188.5,110.7,188.8,110.6,189.2z M116.3,187.1c-0.1,0.3-0.2,0.6-0.3,0.9c-0.1,0.3-0.2,0.6-0.3,0.9c0.4-0.5,0.7-1,1.1-1.6
			c0.3-0.5,0.7-1.1,1-1.7c0.4-0.6,0.7-1.3,1.1-1.9c0.3-0.7,0.5-1.4,0.6-2.1c-0.2,0.2-0.4,0.4-0.5,0.6c-0.2,0.2-0.3,0.4-0.5,0.6
			c-0.2,0.3-0.4,0.6-0.6,1c-0.2,0.4-0.4,0.7-0.6,1.1c-0.2,0.4-0.4,0.8-0.5,1.1C116.6,186.4,116.4,186.8,116.3,187.1z"/>
		<path class="st3" d="M140.1,179.1c0.4-0.1,0.8-0.2,1.4-0.2c0.5,0,1.1,0,1.6,0.1c0.6,0.1,1.1,0.2,1.6,0.4c0.5,0.2,0.9,0.5,1.1,0.8
			c-1.2,0.6-2.3,1.2-3.2,1.9c-1,0.7-1.8,1.6-2.6,2.5c0.5,0,0.9-0.1,1.2-0.1c0.3-0.1,0.5-0.1,0.7-0.2c0.1,0,0.1,0,0.2-0.1
			c0,0,0.1,0,0.1,0c0,0,0,0.1,0,0.2c-0.1,0.1-0.1,0.2-0.1,0.2c-0.1,0.3-0.3,0.5-0.5,0.8c-0.2,0.3-0.5,0.5-0.8,0.6
			c-0.3,0.1-0.6,0.2-0.9,0.3c-0.3,0.1-0.6,0.1-1,0.1c-0.1,0.3-0.3,0.6-0.3,0.9c-0.1,0.3-0.1,0.5-0.2,0.7c-0.1,0.4,0,0.7,0,0.9
			c0.1,0.2,0.2,0.3,0.4,0.3c0.2,0,0.4,0,0.6-0.2c0.3-0.1,0.5-0.3,0.9-0.6c0.1-0.1,0.3-0.3,0.5-0.5c0.2-0.2,0.4-0.4,0.6-0.6
			c0.2-0.2,0.4-0.4,0.6-0.7c0.2-0.2,0.4-0.5,0.5-0.7c0.2-0.2,0.5-0.1,0.6,0.3c-0.4,0.7-0.9,1.3-1.4,2c-0.5,0.6-1.2,1.2-1.9,1.8
			c-0.2,0.1-0.3,0.2-0.5,0.3c-0.2,0.1-0.4,0.2-0.6,0.2c-0.2,0-0.4,0-0.6,0c-0.2,0-0.4-0.1-0.6-0.2c-0.4-0.2-0.6-0.5-0.8-0.8
			c-0.2-0.4-0.3-0.7-0.3-1.1c0-0.4,0-0.7,0.1-1.1c0.1-0.4,0.2-0.8,0.4-1.1c-0.4-0.1-0.8-0.1-1.2-0.2c-0.4-0.1-0.8-0.2-1.2-0.2
			c-0.4,0.5-0.8,1-1.3,1.5s-0.9,0.9-1.3,1.4c-0.2,0.3-0.5,0.5-0.8,0.8c-0.3,0.3-0.6,0.5-0.9,0.7c-0.3,0.2-0.6,0.4-1,0.6
			c-0.3,0.2-0.7,0.3-1.1,0.3c-0.4,0-0.7,0-1.1-0.1c-0.3-0.1-0.6-0.2-0.9-0.4c-0.3-0.2-0.5-0.4-0.6-0.7c-0.2-0.3-0.3-0.6-0.3-0.9
			c-0.1-0.7,0-1.4,0.4-2.1c0.3-0.7,0.8-1.3,1.5-1.7c0.6-0.4,1.3-0.7,2-0.9c0.7-0.2,1.5-0.3,2.2-0.3c0.4,0,0.8,0,1.2,0
			c0.4,0,0.8,0.1,1.2,0.1c0.4-0.4,0.7-0.8,1.1-1.2c0.4-0.4,0.8-0.8,1.2-1.2c0.6-0.5,1.2-1,1.9-1.5
			C138.6,179.7,139.3,179.3,140.1,179.1z M130.7,187.9c0.3-0.4,0.6-0.8,0.9-1.2c0.3-0.4,0.6-0.8,0.9-1.2c-0.2,0-0.4-0.1-0.6-0.1
			c-0.2,0-0.4,0-0.7,0c-0.7,0-1.4,0-2.1,0.2c-0.7,0.1-1.3,0.4-1.9,0.9c-0.3,0.2-0.5,0.5-0.7,0.8c-0.2,0.3-0.3,0.6-0.3,1
			c0,0.3,0,0.6,0.1,1c0.1,0.3,0.3,0.6,0.6,0.7c0.4,0.2,0.7,0.2,1.1,0.1c0.4-0.1,0.7-0.3,1-0.5c0.3-0.3,0.6-0.5,0.9-0.9
			C130.2,188.4,130.5,188.1,130.7,187.9z M141.9,180.2c0.1-0.1,0.3-0.2,0.4-0.2c0.1-0.1,0.3-0.2,0.4-0.2c-0.5,0-0.9,0-1.4,0.1
			c-0.5,0.1-0.9,0.2-1.3,0.4c-0.4,0.2-0.7,0.4-1.1,0.6s-0.6,0.5-0.9,0.8c-0.3,0.3-0.6,0.6-0.8,0.8c-0.3,0.3-0.5,0.6-0.8,0.9
			c-0.3,0.4-0.5,0.5-0.8,0.9c0.3,0.1,0.6,0.1,0.8,0.1c0.2,0,0.4,0.1,0.5,0.1c0.2,0,0.3,0.1,0.4,0.1c0.1,0,0.2,0,0.3,0
			c0.1-0.1,0.1-0.2,0.2-0.3c0.5-0.8,1.1-1.5,1.8-2.2C140.3,181.4,141,180.8,141.9,180.2z"/>
		<path class="st3" d="M151.3,186.6c0.2-0.1,0.6,0,0.6,0.3c-0.4,0.6-0.9,1.1-1.4,1.6c-0.5,0.5-1,0.9-1.5,1.3
			c-0.2,0.2-0.5,0.3-0.8,0.5c-0.3,0.1-0.6,0.2-0.9,0.3c-0.3,0-0.6,0-0.9,0c-0.3-0.1-0.6-0.3-0.8-0.5c-0.2-0.2-0.3-0.5-0.4-0.8
			c0-0.3,0-0.6,0.1-0.9c0.1-0.3,0.2-0.6,0.3-0.9c0.1-0.3,0.3-0.5,0.4-0.8c0.3-0.5,0.6-0.9,0.9-1.3c0.4-0.4,0.7-0.9,1-1.3
			c-0.4,0.2-0.8,0.5-1.2,0.8c-0.4,0.3-0.8,0.6-1.1,0.9c-0.4,0.4-0.8,0.7-1.1,1.1c-0.3,0.4-0.7,0.8-1,1.2c-0.2,0.2-0.3,0.4-0.5,0.6
			s-0.3,0.4-0.4,0.6c-0.1,0.1-0.2,0.2-0.3,0.4c-0.1,0.1-0.3,0.2-0.4,0.2c-0.1,0-0.3,0-0.4-0.1s-0.3-0.2-0.4-0.3
			c-0.1-0.1-0.2-0.2-0.3-0.3c-0.1-0.1-0.1-0.2-0.1-0.3c0.2-0.8,0.5-1.5,1-2.2c0.5-0.7,1-1.4,1.5-2.1c0.2-0.3,0.4-0.6,0.6-0.8
			c0.2-0.3,0.4-0.6,0.7-0.8c0.1-0.1,0.3-0.2,0.5-0.3c0.2,0,0.4,0,0.8,0.2c0.1,0.1,0.3,0.2,0.3,0.2c0.1,0.1,0.1,0.2,0.1,0.3
			s-0.1,0.2-0.2,0.4c-0.1,0.1-0.3,0.3-0.5,0.5c-0.2,0.2-0.4,0.4-0.6,0.7c-0.2,0.3-0.4,0.5-0.5,0.8c0.2-0.2,0.5-0.4,0.7-0.7
			c0.3-0.3,0.6-0.5,0.9-0.8c0.3-0.2,0.7-0.5,1-0.7c0.3-0.2,0.6-0.4,0.9-0.4c0.3-0.1,0.8-0.1,1.2-0.1c0.5,0.1,0.9,0.3,1.2,0.6
			c0.1,0.1,0.1,0.2,0.1,0.2c0,0.1-0.1,0.1-0.1,0.2c-0.1,0.2-0.3,0.4-0.5,0.6c-0.2,0.2-0.3,0.4-0.5,0.7s-0.4,0.4-0.5,0.7
			c-0.2,0.3-0.5,0.6-0.7,1s-0.5,0.7-0.7,1c-0.2,0.4-0.3,0.7-0.2,0.9c0.1,0.2,0.2,0.3,0.4,0.3c0.2,0,0.5-0.1,0.9-0.2
			c0.4-0.2,0.7-0.4,1.1-0.8c0.3-0.3,0.6-0.5,0.8-0.8C150.7,187.3,151,186.8,151.3,186.6z"/>
		<path class="st3" d="M160.4,184.7c-0.3,0.3-0.6,0.6-0.9,0.9c-0.2,0.2-0.4,0.5-0.6,0.7c-0.2,0.2-0.4,0.4-0.4,0.5
			c-0.8,0.9-1.4,1.8-2,2.7c-0.6,0.9-1.2,1.9-1.8,2.9c0.3,0.1,0.4,0.2,0.7,0.3c0.2,0.1,0.4,0.2,0.7,0.3c0.2,0.1,0.5,0.2,0.7,0.2
			c0.2,0.1,0.5,0.1,0.6,0c0.2,0,0.4-0.1,0.6-0.2c-0.2,0.3-0.4,0.6-0.7,0.8c-0.3,0.2-0.6,0.4-1,0.5c-0.4,0.1-0.7,0.2-1.1,0.1
			c-0.4,0-0.7-0.1-1.1-0.2c-0.2-0.1-0.3-0.1-0.6-0.2c-0.3,0.4-0.5,0.8-0.8,1.2c-0.3,0.4-0.6,0.7-1,1c-0.4,0.3-0.8,0.5-1.3,0.7
			c-0.5,0.2-0.9,0.2-1.4,0.2c-0.5,0-1-0.2-1.4-0.5c-0.4-0.3-0.8-0.7-1-1.1c-0.2-0.4-0.3-0.9-0.3-1.3c0-0.5,0.1-0.9,0.3-1.3
			c0.2-0.4,0.5-0.8,0.9-1.1c0.4-0.3,0.8-0.5,1.3-0.7c0.6-0.2,1.3-0.2,2,0c0.7,0.1,1.3,0.3,1.9,0.5c0,0,0,0,0,0
			c0.2-0.4,0.4-0.8,0.6-1.2c0.2-0.4,0.4-0.8,0.7-1.1c-0.1,0.1-0.1,0.1-0.2,0.2c-0.2,0.2-0.4,0.4-0.6,0.6c-0.2,0.2-0.4,0.4-0.7,0.5
			c-0.2,0.1-0.5,0.2-0.7,0.2c-0.3,0-0.5-0.1-0.8-0.2c-0.5-0.3-0.8-0.6-0.9-1.1c-0.1-0.4-0.1-0.9,0.1-1.5c0.2-0.6,0.5-1.1,0.9-1.7
			c0.4-0.5,0.8-1,1.3-1.5c0.2-0.2,0.4-0.4,0.7-0.7c0.3-0.2,0.6-0.4,0.9-0.5c0.2-0.1,0.5-0.1,0.8,0c0.3,0.1,0.7,0.2,1,0.5
			c-0.3,0.2-0.6,0.5-1,0.9c-0.4,0.4-0.8,0.8-1.2,1.3c-0.4,0.5-0.7,0.9-1,1.4c-0.3,0.5-0.5,0.9-0.6,1.2c0,0.1,0,0.2,0,0.3
			c0,0.1,0.1,0.2,0.2,0.2c0.1,0,0.2,0,0.4,0c0.2-0.1,0.4-0.2,0.7-0.4c0.4-0.3,0.8-0.6,1.1-1c0.3-0.4,0.7-0.7,1-1.1
			c0.2-0.3,0.5-0.6,0.7-0.9c0.3-0.3,0.6-0.6,0.9-0.9s0.6-0.5,1-0.7c0.3-0.2,0.7-0.3,1-0.3c0.2,0,0.4,0,0.6,0c0.2,0,0.3,0.1,0.4,0.1
			C160.1,184.6,160.3,184.7,160.4,184.7z M149.9,195.9c0.5-0.3,0.8-0.6,1.1-1.1c0.3-0.4,0.5-0.9,0.7-1.3c0,0,0,0,0,0
			c-0.3-0.1-0.6-0.3-1-0.4c-0.3-0.1-0.6-0.2-1-0.2c-0.4-0.1-0.7,0-1.1,0c-0.4,0.1-0.7,0.2-1,0.5c-0.2,0.2-0.4,0.5-0.5,0.9
			c-0.1,0.3,0,0.7,0.1,1c0.1,0.2,0.3,0.4,0.5,0.5c0.2,0.1,0.4,0.2,0.7,0.3c0.2,0.1,0.5,0.1,0.7,0C149.4,196,149.7,196,149.9,195.9z"
			/>
		<path class="st3" d="M169,181.7c-0.1,0.7,0,1.4,0.2,2.1c0.2,0.7,0.6,1.3,1.1,1.9c0.4-0.1,0.8-0.2,1.2-0.3c0.4-0.1,0.8-0.2,1.2-0.2
			c0.8-0.1,1.6-0.2,2.4-0.1c0.9,0,1.7,0.2,2.4,0.5c0.5,0.2,0.9,0.4,1.1,0.7c0.3,0.3,0.4,0.6,0.5,0.9c0,0.3,0,0.6-0.2,0.9
			c-0.2,0.3-0.4,0.6-0.8,0.8c-0.3,0.2-0.6,0.4-1,0.5c-0.4,0.1-0.7,0.2-1.1,0.2c-0.4,0-0.8,0-1.2,0c-0.4,0-0.8-0.1-1.2-0.1
			c-0.7-0.1-1.3-0.3-2-0.6c-0.7-0.3-1.3-0.7-1.8-1.1c-0.1,0.1-0.2,0.1-0.2,0.2c-0.1,0.1-0.2,0.1-0.2,0.2c-0.3,0.2-0.6,0.5-0.9,0.7
			c-0.3,0.3-0.6,0.5-0.8,0.8c-0.2,0.3-0.4,0.6-0.6,0.9c-0.2,0.3-0.3,0.7-0.3,1c-0.1,0.4,0,0.8,0.2,1.1c0.2,0.3,0.5,0.5,0.8,0.7
			c0.3,0.2,0.7,0.3,1.1,0.3c0.4,0,0.8,0,1.2,0c0.5-0.1,0.9-0.2,1.2-0.5c0.4-0.2,0.6-0.5,0.9-0.7c0.2-0.3,0.4-0.5,0.4-0.8
			c0-0.3,0-0.5-0.2-0.6c-0.2-0.2-0.4-0.2-0.6-0.2c-0.2,0-0.4,0.1-0.6,0.1c-0.2,0.1-0.4,0.2-0.5,0.3c-0.2,0.1-0.3,0.3-0.4,0.4
			c-0.1-0.3-0.1-0.6,0-0.9c0.1-0.3,0.3-0.5,0.5-0.7c0.2-0.2,0.5-0.3,0.9-0.3c0.3-0.1,0.7,0,1.1,0.1c0.4,0.1,0.6,0.3,0.8,0.6
			c0.2,0.3,0.3,0.6,0.3,0.9c0,0.3-0.1,0.6-0.2,0.9c-0.2,0.3-0.4,0.6-0.6,0.8c-0.3,0.2-0.5,0.4-0.8,0.6c-0.3,0.2-0.6,0.3-0.9,0.4
			c-0.3,0.1-0.7,0.2-1.1,0.3c-0.4,0.1-0.8,0.1-1.2,0.1s-0.8,0-1.2-0.1c-0.4-0.1-0.8-0.2-1.1-0.3c-0.4-0.2-0.8-0.4-1.1-0.7
			c-0.3-0.3-0.5-0.6-0.6-1c-0.1-0.3-0.2-0.7-0.3-1.1c0-0.4,0-0.8,0.1-1.1c0.2-0.7,0.6-1.4,1.1-2c0.6-0.6,1.2-1.1,1.9-1.5
			c0.3-0.2,0.5-0.3,0.8-0.5c-0.3-0.5-0.6-1-0.7-1.5c-0.1-0.5-0.2-1.1,0-1.6c0-0.1,0.1-0.2,0.1-0.4c0.1-0.2,0.1-0.3,0.2-0.5
			c0.1-0.2,0.2-0.3,0.3-0.5C168.7,181.9,168.9,181.8,169,181.7z M174.1,186c-0.9,0.2-1.7,0.5-2.4,0.9c0.4,0.2,0.8,0.5,1.2,0.7
			c0.4,0.2,0.8,0.3,1.3,0.5c0.2,0.1,0.5,0.1,0.8,0.2c0.3,0,0.6,0.1,0.9,0.1c0.3,0,0.6,0,0.9,0c0.3,0,0.5-0.1,0.8-0.2
			c0.3-0.1,0.5-0.2,0.6-0.4c0.1-0.2,0.2-0.3,0.2-0.5c0-0.2-0.1-0.4-0.3-0.5c-0.2-0.2-0.4-0.3-0.8-0.4c-0.2-0.1-0.5-0.1-0.8-0.2
			c-0.3,0-0.6,0-0.9,0c-0.3,0-0.6,0-0.8,0C174.4,186,174.2,186,174.1,186z"/>
		<path class="st3" d="M184.7,192.6c-0.2,0.1-0.4,0.2-0.7,0.4c-0.3,0.2-0.6,0.3-0.9,0.5c-0.3,0.2-0.6,0.4-0.9,0.6
			c-0.3,0.2-0.6,0.4-0.9,0.6c-0.5,0.4-1,0.8-1.3,1.1c-0.3,0.3-0.5,0.5-0.4,0.7c0,0.1,0.1,0.1,0.1,0.1c0.1,0,0.2,0,0.3,0.1
			c0.1,0,0.2,0,0.3,0c0.1,0,0.2,0,0.2,0c0.3,0,0.6-0.1,0.9-0.2c0.3-0.1,0.5-0.2,0.8-0.3c0.2-0.1,0.5-0.2,0.7-0.4s0.5-0.3,0.7-0.4
			c0.1,0,0.3,0.1,0.4,0.2c0.1,0.1,0.1,0.2,0.1,0.3c-0.3,0.2-0.5,0.4-0.8,0.5s-0.5,0.3-0.8,0.5c-0.3,0.1-0.6,0.3-0.9,0.4
			c-0.3,0.1-0.6,0.2-0.9,0.3c-0.3,0.1-0.6,0.2-0.9,0.2c-0.3,0-0.6,0-0.9-0.1c-0.3-0.1-0.6-0.3-0.7-0.6c-0.2-0.3-0.3-0.5-0.3-0.8
			c0-0.1,0-0.3,0-0.4c-0.3,0.2-0.5,0.3-0.8,0.4c-0.3,0.1-0.6,0.2-0.9,0.2c-0.4,0-0.8,0-1.2-0.2c-0.4-0.2-0.7-0.4-0.9-0.8
			c-0.2-0.3-0.3-0.7-0.3-1c0-0.4,0.1-0.7,0.2-1c0.1-0.4,0.4-0.8,0.6-1.1c0.3-0.3,0.6-0.7,0.9-0.9c0.4-0.3,0.7-0.5,1.2-0.7
			c0.4-0.2,0.9-0.4,1.3-0.5c0.4-0.1,0.9-0.2,1.4-0.2c0.5,0,1,0.1,1.4,0.3c0.4,0.2,0.8,0.5,1,0.8c0.2,0.3,0.4,0.7,0.4,1.1
			c0.2-0.1,0.4-0.1,0.6-0.2c0.2,0,0.5,0,0.7,0c0.2,0,0.5,0.1,0.7,0.2C184.4,192.3,184.6,192.4,184.7,192.6z M177.5,194.4
			c0.6-0.1,1.3-0.3,1.9-0.7c0.6-0.3,1.1-0.7,1.5-1.2c0.1-0.2,0.2-0.4,0.2-0.6c0-0.2-0.1-0.4-0.4-0.6c-0.2-0.1-0.5-0.2-0.7-0.1
			c-0.2,0-0.5,0.1-0.7,0.1c-0.7,0.2-1.3,0.5-1.8,1c-0.5,0.4-1,0.9-1.3,1.4c-0.4,0.5-0.5,0.9-0.3,1.2c0.1,0.3,0.4,0.4,0.9,0.3
			c0.3,0,0.6-0.1,0.8-0.1c0.3-0.1,0.5-0.2,0.8-0.3c-0.2,0-0.3-0.1-0.5-0.1C177.6,194.6,177.5,194.5,177.5,194.4z"/>
		<path class="st3" d="M180,196.7c1-0.4,1.9-0.9,2.8-1.4c0.9-0.5,1.8-1.2,2.6-1.9c0-0.3,0-0.5,0.1-0.7c0.1-0.2,0.3-0.4,0.5-0.5
			c0.2-0.1,0.4-0.2,0.6-0.1c0.2,0,0.4,0.1,0.5,0.3c0.1,0.2,0.2,0.4,0,0.6c-0.1,0.2-0.3,0.3-0.5,0.5c0.1,0.1,0.2,0.1,0.3,0.2
			c0.1,0.1,0.2,0.1,0.3,0.1c0.3,0.1,0.7,0.3,0.9,0.3c0.2,0,0.5-0.2,0.6-0.2c0.2,0,0.3,0.1,0.5,0.3c0.3,0.5,0.4,0.9,0.4,1.2
			c-0.1,0.3-0.3,0.5-0.7,0.6c-0.7,0.2-1.3,0.5-2,0.9c-0.7,0.3-1.2,0.7-1.6,1.1c-0.3,0.3-0.5,0.5-0.6,0.7c-0.1,0.2-0.1,0.4,0.1,0.5
			c0.1,0.1,0.3,0.2,0.6,0.3c0.3,0,0.6,0,1-0.1c0.4-0.1,0.9-0.2,1.5-0.5c0.6-0.2,1.1-0.5,1.6-0.8c0.2,0,0.3,0.1,0.4,0.2
			c0.1,0.1,0.1,0.2,0,0.3c-0.6,0.3-1.1,0.6-1.6,0.9c-0.5,0.2-1.1,0.4-1.7,0.6c-0.5,0.1-1,0.2-1.4,0.2c-0.4,0-0.8-0.1-1.1-0.2
			c-0.3-0.1-0.6-0.3-0.8-0.6s-0.3-0.5-0.4-0.8c-0.1-0.3,0-0.6,0.1-1c0.1-0.3,0.4-0.7,0.8-1c0.5-0.4,1-0.8,1.6-1.1
			c0.6-0.3,1.1-0.6,1.6-0.8c-0.1,0-0.2-0.1-0.2-0.1c-0.1-0.1-0.2-0.1-0.4-0.3c-0.1-0.1-0.3-0.2-0.4-0.4c-0.3,0.2-0.6,0.5-0.9,0.8
			c-0.4,0.3-0.8,0.6-1.2,0.9c-0.4,0.2-0.7,0.5-1.1,0.7c-0.3,0.2-0.7,0.3-1,0.4c-0.3,0.1-0.6,0.1-0.9,0.1
			C180.4,196.9,180.2,196.8,180,196.7z"/>
	</g>
</g>
</svg>
